<mxfile host="app.diagrams.net" agent="Mozilla/5.0 (Windows NT 10.0; Win64; x64; rv:137.0) Gecko/20100101 Firefox/137.0" version="26.2.12">
  <diagram name="Page-1" id="znP_if3ipMWbExZ5vrtl">
    <mxGraphModel dx="1871" dy="563" grid="1" gridSize="10" guides="1" tooltips="1" connect="1" arrows="1" fold="1" page="1" pageScale="1" pageWidth="827" pageHeight="1169" math="0" shadow="0">
      <root>
        <mxCell id="0" />
        <mxCell id="1" parent="0" />
        <mxCell id="jBqP50lTHoc2j6yB1DXO-3" value="Blackjack Browserspiel" style="rounded=0;whiteSpace=wrap;html=1;labelPosition=center;verticalLabelPosition=top;align=center;verticalAlign=bottom;" vertex="1" parent="1">
          <mxGeometry x="-540" y="180" width="190" height="370" as="geometry" />
        </mxCell>
        <mxCell id="jBqP50lTHoc2j6yB1DXO-9" style="rounded=0;orthogonalLoop=1;jettySize=auto;html=1;" edge="1" parent="1" source="jBqP50lTHoc2j6yB1DXO-1" target="jBqP50lTHoc2j6yB1DXO-5">
          <mxGeometry relative="1" as="geometry" />
        </mxCell>
        <mxCell id="jBqP50lTHoc2j6yB1DXO-10" style="rounded=0;orthogonalLoop=1;jettySize=auto;html=1;" edge="1" parent="1" source="jBqP50lTHoc2j6yB1DXO-1" target="jBqP50lTHoc2j6yB1DXO-6">
          <mxGeometry relative="1" as="geometry" />
        </mxCell>
        <mxCell id="jBqP50lTHoc2j6yB1DXO-18" style="rounded=0;orthogonalLoop=1;jettySize=auto;html=1;" edge="1" parent="1" source="jBqP50lTHoc2j6yB1DXO-1" target="jBqP50lTHoc2j6yB1DXO-12">
          <mxGeometry relative="1" as="geometry" />
        </mxCell>
        <mxCell id="jBqP50lTHoc2j6yB1DXO-20" style="rounded=0;orthogonalLoop=1;jettySize=auto;html=1;" edge="1" parent="1" source="jBqP50lTHoc2j6yB1DXO-1" target="jBqP50lTHoc2j6yB1DXO-14">
          <mxGeometry relative="1" as="geometry" />
        </mxCell>
        <mxCell id="jBqP50lTHoc2j6yB1DXO-1" value="Spieler" style="shape=umlActor;verticalLabelPosition=bottom;verticalAlign=top;html=1;outlineConnect=0;" vertex="1" parent="1">
          <mxGeometry x="-660" y="260" width="30" height="60" as="geometry" />
        </mxCell>
        <mxCell id="jBqP50lTHoc2j6yB1DXO-15" style="rounded=0;orthogonalLoop=1;jettySize=auto;html=1;" edge="1" parent="1" source="jBqP50lTHoc2j6yB1DXO-4" target="jBqP50lTHoc2j6yB1DXO-7">
          <mxGeometry relative="1" as="geometry" />
        </mxCell>
        <mxCell id="jBqP50lTHoc2j6yB1DXO-16" style="rounded=0;orthogonalLoop=1;jettySize=auto;html=1;" edge="1" parent="1" source="jBqP50lTHoc2j6yB1DXO-4" target="jBqP50lTHoc2j6yB1DXO-12">
          <mxGeometry relative="1" as="geometry" />
        </mxCell>
        <mxCell id="jBqP50lTHoc2j6yB1DXO-19" style="rounded=0;orthogonalLoop=1;jettySize=auto;html=1;" edge="1" parent="1" source="jBqP50lTHoc2j6yB1DXO-4" target="jBqP50lTHoc2j6yB1DXO-14">
          <mxGeometry relative="1" as="geometry" />
        </mxCell>
        <mxCell id="jBqP50lTHoc2j6yB1DXO-4" value="Dealer" style="shape=umlActor;verticalLabelPosition=bottom;verticalAlign=top;html=1;outlineConnect=0;" vertex="1" parent="1">
          <mxGeometry x="-260" y="310" width="30" height="60" as="geometry" />
        </mxCell>
        <mxCell id="jBqP50lTHoc2j6yB1DXO-5" value="Einsatz" style="ellipse;whiteSpace=wrap;html=1;" vertex="1" parent="1">
          <mxGeometry x="-486.25" y="205" width="82.5" height="55" as="geometry" />
        </mxCell>
        <mxCell id="jBqP50lTHoc2j6yB1DXO-6" value="SpielzÃ¼ge" style="ellipse;whiteSpace=wrap;html=1;" vertex="1" parent="1">
          <mxGeometry x="-482.5" y="285" width="75" height="55" as="geometry" />
        </mxCell>
        <mxCell id="jBqP50lTHoc2j6yB1DXO-7" value="Ergebnis berechnen" style="ellipse;whiteSpace=wrap;html=1;" vertex="1" parent="1">
          <mxGeometry x="-484" y="360" width="78" height="50" as="geometry" />
        </mxCell>
        <mxCell id="jBqP50lTHoc2j6yB1DXO-12" value="Geld austeilen/erhalten" style="ellipse;whiteSpace=wrap;html=1;" vertex="1" parent="1">
          <mxGeometry x="-484" y="430" width="78" height="50" as="geometry" />
        </mxCell>
        <mxCell id="jBqP50lTHoc2j6yB1DXO-14" value="Karten erhalten/austeilen" style="ellipse;whiteSpace=wrap;html=1;" vertex="1" parent="1">
          <mxGeometry x="-484" y="490" width="78" height="50" as="geometry" />
        </mxCell>
      </root>
    </mxGraphModel>
  </diagram>
</mxfile>
